# xmcd CD database file
#
# Track frame offsets:
#	183
#	7695
#	16575
#	35430
#	46853
#	61538
#	74458
#	89208
#	105525
#	116583
#	128125
#	146815
#	162470
#
# Disc length: 2339 seconds
#
# Revision: 1
# Processed by: cddbd v1.5.2PL0 Copyright (c) Steve Scherf et al.
# Submitted via: CDex 1.51
#
DISCID=a409210d
DTITLE=Varios - Selección Jazz vol. 1
DYEAR=1995
DGENRE=Jazz
TTITLE0=Frank Sinatra - After I Say I'm Sorry
TTITLE1=Ella Fitzgerald - Lover Come Back To Me
TTITLE2=Miles Davis - Out Of Nowhere
TTITLE3=Louis Amstrong - When The Saints Go Marching In
TTITLE4=Woody Herman - The Blues And Brewing
TTITLE5=Jimmy Lucenford - Chopin Prelude
TTITLE6=Herb Jeffries - Devil Is A Woman
TTITLE7=Chick Corea - Marjoun
TTITLE8=Ella Fitzgerald - That Old Black Magic
TTITLE9=Artie Shaw - Oh Look At There! Ain't She Pretty
TTITLE10=Mahalia Jackson - A City Called Heaven
TTITLE11=B. B. King - Lonely Nights
TTITLE12=Sara Vaughan - That Old Black Magic
EXTD=YEAR: 1995
EXTT0=
EXTT1=
EXTT2=
EXTT3=
EXTT4=
EXTT5=
EXTT6=
EXTT7=
EXTT8=
EXTT9=
EXTT10=
EXTT11=
EXTT12=
PLAYORDER=
